<?xml version="1.0" encoding="UTF-8"?>
<svg id="_圖層_1" data-name="圖層 1" xmlns="http://www.w3.org/2000/svg" viewBox="0 0 196 196">
  <defs>
    <style>
      .cls-1 {
        fill: #5b5b5b;
      }

      .cls-2 {
        fill: #ffd1b2;
      }

      .cls-3 {
        fill: #ffee06;
      }
    </style>
  </defs>
  <polygon class="cls-3" points="128.3 164.58 128.3 172.72 133.34 176.3 137.21 166.96 140.71 164.58 147.62 166.88 142.31 180.42 137.96 188.5 128.3 188.5 117.52 183.67 112.76 177.28 112.76 169.58 114.31 164.58 128.3 164.58"/>
  <rect class="cls-3" x="117.5" y="68.73" width="28.9" height="19.9"/>
  <rect class="cls-2" x="31.74" y="138.09" width="26.67" height="19.57"/>
  <path class="cls-1" d="M162.59,20.64c-3.39-6.22-8.47-11.33-14.68-14.75-.62-.35-1.35-.43-2.03-.23-.69.2-1.25.65-1.6,1.27-.22.39-.33.84-.33,1.29v28.52c0,.09-.05.18-.13.22l-13.82,7.42c-.07.04-.16.04-.24,0l-13.82-7.42c-.08-.04-.13-.13-.13-.22V8.21c0-.71-.28-1.38-.78-1.89-.5-.5-1.17-.78-1.88-.78h0c-.45,0-.89.12-1.29.33-17.96,9.91-24.51,32.59-14.6,50.55,3.43,6.21,8.54,11.29,14.77,14.69.08.04.13.13.13.22v1.46c0,.14-.11.25-.25.25h-15.26c-6.82,0-13.24,3.33-17.18,8.9l-7.24,10.24c-.05.07-.12.11-.2.11h-10.68c-.14,0-.25-.11-.25-.25v-4.27c0-1.47-1.2-2.67-2.67-2.67h-26.91c-1.47,0-2.67,1.2-2.67,2.67v69.93c0,1.47,1.2,2.67,2.67,2.67h26.91c1.47,0,2.67-1.2,2.67-2.67v-4.27c0-.14.11-.25.25-.25h11.07c.06,0,.12.02.17.06l8.94,8.02c3.86,3.46,8.84,5.37,14.02,5.37h16.36c.14,0,.25.11.25.25v5.84c0,9.78,7.95,17.73,17.73,17.73s17.73-7.95,17.73-17.73v-5.84c0-.14.11-.25.25-.25h.64c5.36.18,9.89-4.04,10.1-9.39v-4.93c0-1.69-.49-3.34-1.4-4.77-.04-.06-.05-.13-.03-.2.02-.07.07-.13.13-.16,3.23-1.5,5.36-4.77,5.41-8.33v-4.92c-.01-2.47-1.05-4.86-2.86-6.55-.05-.05-.08-.11-.08-.18s.03-.13.08-.18c1.8-1.69,2.84-4.08,2.86-6.55v-4.93c-.06-3.55-2.18-6.82-5.41-8.32-.07-.03-.11-.09-.13-.16-.02-.07,0-.14.03-.21.92-1.43,1.4-3.08,1.4-4.77v-4.93c-.21-5.34-4.74-9.58-10.09-9.38h-.66c-.14,0-.25-.11-.25-.25v-16.19c0-.09.05-.18.13-.22,8.73-4.76,15.08-12.63,17.88-22.17,2.8-9.54,1.73-19.59-3.03-28.32ZM55.76,154.79c0,.14-.11.25-.25.25h-21.07c-.14,0-.25-.11-.25-.25v-13.01c0-.14.11-.25.25-.25h21.07c.14,0,.25.11.25.25v13.01ZM55.76,135.94c0,.14-.11.25-.25.25h-21.07c-.14,0-.25-.11-.25-.25v-45.25c0-.14.11-.25.25-.25h21.07c.14,0,.25.11.25.25v45.25ZM142.31,172.7c0,6.83-5.56,12.39-12.39,12.39s-12.39-5.56-12.39-12.39v-5.84c0-.14.11-.25.25-.25h5.45c.08,0,.16.04.21.11.05.07.06.15.03.23-.7,1.84-.64,3.84.16,5.63.8,1.79,2.26,3.17,4.1,3.87,1.84.7,3.84.64,5.63-.16,1.79-.8,3.17-2.26,3.87-4.1.65-1.69.65-3.56,0-5.25-.03-.08-.02-.16.03-.23.05-.07.12-.11.21-.11h4.62c.14,0,.25.11.25.25v5.84ZM128.3,169.58c0-.54.21-1.05.6-1.44.79-.79,2.08-.79,2.88,0,.77.78.78,2.03.04,2.83-.01.02-.02.04-.04.05-.38.38-.9.59-1.44.59h0c-.54,0-1.05-.21-1.44-.6-.38-.38-.6-.9-.6-1.44ZM148.52,93.11c2.38-.18,4.53,1.62,4.76,4.02v4.95c-.22,2.43-2.39,4.25-4.78,4.06h-18.36v5.34h22.51c2.39-.18,4.53,1.62,4.76,4.02v4.95c-.22,2.43-2.37,4.25-4.78,4.06h-22.49v5.34h22.51c2.39-.19,4.54,1.63,4.76,4.04v4.95c-.22,2.43-2.37,4.25-4.78,4.06h-22.49v5.34h18.38c2.38-.19,4.53,1.62,4.76,4.02v4.95c-.22,2.31-2.18,4.06-4.44,4.06-.11,0-.23,0-.34-.01h-52.92s0,0,0,0c-3.87,0-7.59-1.42-10.47-4.01l-9.78-8.75c-.49-.44-1.12-.68-1.78-.68h-12.19c-.14,0-.25-.11-.25-.25v-49.66c0-.14.11-.25.25-.25h12.19c.87,0,1.68-.42,2.18-1.13l8.11-11.47c2.94-4.16,7.73-6.64,12.82-6.64h15.26c.14,0,.25.11.25.25v8.87c0,.14-.11.25-.25.25h-11.87v5.34h48.48ZM117.5,87.52v-15.04c0-.14.11-.25.25-.25h24.29c.14,0,.25.11.25.25v15.04c0,.14-.11.25-.25.25h-24.29c-.14,0-.25-.11-.25-.25ZM154.95,58.17c-2.86,3.62-6.54,6.62-10.66,8.7-.04.02-.07.03-.11.03h-28.59s-.08,0-.11-.03c-10.83-5.41-17.54-16.29-17.51-28.4,0-9.81,4.42-18.92,12.11-25.01.07-.06.18-.07.26-.03.09.04.14.13.14.23v24.82c0,.98.54,1.88,1.41,2.35l16.73,9c.79.43,1.74.42,2.53,0l16.74-9c.87-.47,1.4-1.37,1.4-2.35V13.66c0-.1.05-.18.14-.23.09-.04.19-.03.26.03,13.78,10.88,16.14,30.94,5.26,44.71Z"/>
</svg>